<svg width="45" height="45" viewBox="0 0 45 45" fill="none" xmlns="http://www.w3.org/2000/svg">
<path d="M4.09513 40.5013L0 0H45L40.9008 40.4952L22.4727 45L4.09513 40.5013Z" fill="#1572B6"/>
<path d="M22.5005 41.5569L37.3915 37.9166L40.8948 3.31134H22.5005V41.5569Z" fill="#33A9DC"/>
<path d="M22.5005 17.985H29.9551L30.47 12.8984H22.5005V7.93103H36.6269L36.4917 9.26382L35.1068 22.9523H22.5005V17.985Z" fill="white"/>
<path d="M22.5339 30.8855L22.5091 30.892L16.2352 29.3983L15.834 25.4365H10.1797L10.9687 33.2361L22.5083 36.0601L22.5339 36.0536V30.8855Z" fill="#EBEBEB"/>
<path d="M29.476 22.7422L28.7974 29.3944L22.5142 30.8898V36.058L34.0631 33.2358L34.1479 32.3965L35.1278 22.7422H29.476Z" fill="white"/>
<path d="M22.5195 7.93103V12.8984H8.91197L8.79914 11.7822L8.54254 9.26382L8.40771 7.93103H22.5195ZM22.5004 17.9857V22.9531H16.3055L16.1927 21.8368L15.9357 19.3185L15.8013 17.9857H22.5004Z" fill="#EBEBEB"/>
</svg>
