<svg width="45" height="45" viewBox="0 0 45 45" fill="none" xmlns="http://www.w3.org/2000/svg">
<path d="M20.9756 0H24.0241C32.6649 0.890415 38.9554 5.19245 42.8932 12.9083C44.067 15.4859 44.7695 18.1747 45 20.9756V24.0241C44.1096 32.6649 39.8076 38.9554 32.0917 42.8932C29.5141 44.067 26.8253 44.7695 24.0241 45H20.9759C12.3351 44.1096 6.04462 39.8076 2.10531 32.0917C0.931567 29.5141 0.230525 26.8253 0 24.0241V20.9759C0.890415 12.3351 5.19245 6.04462 12.9083 2.10531C15.4859 0.931567 18.1747 0.230525 20.9756 0Z" fill="#382A24"/>
<path d="M39.8007 22.3201C39.7038 19.9216 39.0767 17.6798 37.9186 15.597C38.1499 14.9051 38.2266 14.1709 38.1433 13.4462C37.9583 12.9866 37.6153 12.7335 37.112 12.6836C36.3361 12.6391 35.5589 12.6244 34.7819 12.6395C34.9426 12.5667 35.1217 12.5215 35.3195 12.5044C34.3034 10.9679 33.0294 9.61839 31.5539 8.51558C29.6663 6.95908 27.4842 6.18229 25.0103 6.18521C23.0529 6.22527 21.2291 6.74713 19.5418 7.75299C15.9696 9.79603 13.0121 12.5143 10.6665 15.9113C9.9381 15.9951 9.20537 16.0395 8.47119 16.045C4.66044 15.4462 3.55479 16.9117 5.1539 20.438C5.80043 21.7301 6.39835 23.046 6.94638 24.3828C6.86517 25.4571 6.80544 26.5322 6.7672 27.6094C5.607 29.4813 4.51544 31.3949 3.4947 33.3463C3.43498 33.4658 3.37525 33.4658 3.31553 33.3463C0.390814 27.8654 -0.252324 22.1278 1.38793 16.1345C3.85342 8.77014 8.76982 3.85374 16.1342 1.38826C24.1308 -0.715235 31.2425 0.92757 37.4703 6.31922C43.1733 11.8926 45.3999 18.6313 44.1493 26.5336C43.1253 31.6478 40.6598 35.9054 36.7536 39.3083C36.557 39.4805 36.3479 39.6 36.1261 39.667C35.5671 37.9994 35.6709 36.3723 36.4393 34.7819C37.5748 32.9272 38.4782 30.9401 39.1291 28.8651C39.7694 26.7099 39.9926 24.5292 39.8007 22.3201Z" fill="#E1D7CB"/>
<path d="M31.5539 8.51554C33.0295 9.61835 34.3034 10.9678 35.3195 12.5044C35.134 12.5185 34.9523 12.5641 34.782 12.6391C33.2471 12.7434 31.7363 13.0758 30.2994 13.6253C28.8951 13.6934 27.4912 13.7375 26.0858 13.759C25.7289 13.9039 25.3702 13.9196 25.0104 13.8045C23.9987 13.7619 23.1622 13.3576 22.4994 12.594C21.5052 11.9865 20.4593 11.8671 19.3627 12.2353C18.587 12.7673 18.303 13.4989 18.5106 14.432C18.9869 15.2783 19.1209 16.1746 18.9148 17.1218C18.8291 17.2655 18.7538 17.4152 18.6897 17.5697C16.1974 19.8505 13.9721 22.4069 12.0566 25.1898C11.4873 26.1791 11.0362 27.2319 10.7124 28.3265C10.5332 29.8826 11.176 30.9427 12.64 31.5101C13.4448 31.8299 14.2886 32.041 15.1492 32.1376C14.4325 32.6824 13.6244 32.8616 12.7296 32.6751C11.5983 32.4772 10.4981 32.1304 9.45782 31.6437C8.38526 33.5788 7.38347 35.5523 6.45444 37.5602C5.85642 36.8863 5.27359 36.199 4.70639 35.4989C4.677 35.4438 4.66162 35.3823 4.66162 35.3198C4.66162 35.2573 4.677 35.1957 4.70639 35.1406C5.4703 33.3441 6.3074 31.5797 7.21558 29.8516C7.68245 30.6779 8.35545 31.2315 9.23312 31.5101C8.53026 30.836 8.09616 30.0133 7.93264 29.0446C7.76838 27.5059 7.92133 25.9499 8.38204 24.4727C10.1803 18.7041 13.4223 13.9371 18.1081 10.1744C20.1297 8.7304 22.3705 7.8043 24.8312 7.3946C27.1631 7.23545 29.4049 7.60801 31.5543 8.5159L31.5539 8.51554Z" fill="#FCFCFC"/>
<path d="M25.0102 13.8046C23.7538 14.2519 22.5262 14.7759 21.3341 15.3738C20.5157 15.983 19.7231 16.6261 18.9583 17.3014C18.9384 17.2764 18.9243 17.2474 18.9167 17.2164C18.9092 17.1854 18.9085 17.1532 18.9146 17.1219C19.1207 16.1746 18.9867 15.2784 18.5103 14.4321C18.3027 13.4987 18.5868 12.7678 19.3625 12.2353C20.459 11.8671 21.5049 11.9866 22.4992 12.594C23.162 13.3577 23.9985 13.762 25.0102 13.8046Z" fill="#382A24"/>
<path d="M34.7818 12.6392C35.5582 12.6239 36.335 12.6392 37.1118 12.6836C37.6154 12.7335 37.9581 12.9866 38.1431 13.4462C38.2264 14.1709 38.1497 14.9051 37.9184 15.597C37.3693 17.1302 36.5313 18.489 35.4092 19.6769C34.6237 20.2075 33.7872 20.2971 32.8982 19.9457C30.932 19.3594 29.3632 18.2388 28.1923 16.5829C27.8194 15.6426 28.0729 14.9098 28.9549 14.388C29.4029 14.133 29.8508 13.8799 30.2991 13.6254C31.7361 13.0759 33.2469 12.7435 34.7818 12.6392Z" fill="#372923"/>
<path d="M30.2991 13.6254C29.8512 13.8799 29.4029 14.133 28.9549 14.388C28.0729 14.9098 27.8194 15.6425 28.1924 16.5829C29.3632 18.2388 30.9321 19.3597 32.8983 19.9457C33.7872 20.2971 34.6237 20.2075 35.4089 19.6769C36.5313 18.489 37.3693 17.1306 37.9181 15.597C39.0762 17.6798 39.7037 19.9216 39.8005 22.3197C39.3668 23.7242 38.781 25.0772 38.0536 26.3545C37.7139 26.8441 37.3392 27.3085 36.9326 27.7442C36.5015 28.0404 36.0829 28.3546 35.678 28.6859L35.5881 28.5512C35.9951 27.0479 36.1015 25.479 35.9013 23.9345C35.8242 23.5221 35.6724 23.1273 35.4533 22.7695C35.3146 24.7614 34.7975 26.7085 33.9296 28.5068C32.7744 30.6736 30.9976 31.4358 28.5962 30.7916C25.0054 29.7672 21.8535 27.9889 19.1378 25.4582C19.3108 26.5363 19.6121 27.5898 20.0351 28.5964C20.5887 30.2665 20.738 31.9694 20.4831 33.705C20.3996 34.075 20.2795 34.4357 20.1247 34.7819C18.913 36.7553 17.8636 38.8239 16.9866 40.9671C16.6938 41.7567 16.4544 42.565 16.2699 43.3867C16.2477 43.4312 16.216 43.4703 16.1772 43.5013C16.1383 43.5323 16.0931 43.5545 16.0448 43.5662C12.3095 42.3936 9.11126 40.3924 6.45386 37.5599C7.38291 35.552 8.3847 33.5785 9.45723 31.6434C10.4975 32.1301 11.5977 32.4769 12.729 32.6748C13.6238 32.8612 14.4319 32.6821 15.1486 32.1373C14.288 32.0406 13.4442 31.8296 12.6394 31.5098C11.1754 30.9424 10.5326 29.8823 10.7118 28.3261C11.0356 27.2316 11.4867 26.1788 12.056 25.1895C13.9717 22.4068 16.1971 19.8507 18.6895 17.5701C18.7536 17.415 18.829 17.2657 18.9142 17.1222C18.9082 17.1535 18.909 17.1857 18.9166 17.2166C18.9243 17.2475 18.9384 17.2764 18.9583 17.3014C19.7231 16.6261 20.5157 15.983 21.3342 15.3738C22.5262 14.7759 23.7539 14.2518 25.0102 13.8045C25.37 13.9196 25.7283 13.904 26.0856 13.759C27.4924 13.7375 28.8963 13.692 30.2991 13.6254Z" fill="#887363"/>
<path d="M36.3949 29.4926C35.8989 31.5899 35.1931 33.6321 34.2882 35.5882C34.0988 35.9425 33.8147 36.1818 33.436 36.3056L33.3464 36.1701C33.7338 35.093 33.9163 33.953 33.8843 32.8088C33.5616 34.1527 33.0647 35.4488 32.4061 36.6639C31.7178 36.9469 31.0149 36.991 30.2993 36.7976C30.077 36.518 29.9095 36.199 29.8055 35.8573C29.5749 34.735 29.4402 33.5952 29.4031 32.45C32.2455 32.6423 34.5755 31.6561 36.3953 29.4929L36.3949 29.4926Z" fill="#FBFBFB"/>
</svg>
