<svg width="40" height="46" viewBox="0 0 40 46" fill="none" xmlns="http://www.w3.org/2000/svg">
<path d="M18.1674 0H26.5946V34.8162C22.2715 35.5494 19.0975 35.8423 15.6505 35.8423C5.36273 35.8419 0 31.6911 0 23.7295C0 16.0612 5.69128 11.0795 14.501 11.0795C15.8692 11.0795 16.9088 11.1773 18.1674 11.4702V0ZM18.1674 17.5249C17.1826 17.232 16.3616 17.1346 15.322 17.1346C11.054 17.1346 8.59108 19.4788 8.59108 23.5815C8.59108 27.5867 10.9445 29.7843 15.2676 29.7843C16.1973 29.7843 16.9635 29.7354 18.1674 29.5895V17.5249Z" fill="#F5F5F5"/>
<path d="M40.0001 11.6153V29.0518C40.0001 35.0595 39.5072 37.941 38.03 40.4318C36.6618 42.8256 34.856 44.3393 31.1352 46L23.3099 42.679C27.0311 41.1157 28.8365 39.749 29.9857 37.6477C31.1896 35.499 31.5733 33.0082 31.5733 26.4633V11.6153H40.0001ZM31.5729 0.039856H40.0001V7.75707H31.5729V0.039856Z" fill="#F5F5F5"/>
</svg>
