<svg width="45" height="40" viewBox="0 0 45 40" fill="none" xmlns="http://www.w3.org/2000/svg">
<path d="M44.4237 13.9801C42.875 12.7363 40.822 12.5871 39.0932 13.2836C38.8771 10.6965 37.6525 8.45771 36.2118 6.86567L35.6355 6.21891L35.1313 7.01492C34.1588 8.55721 33.8707 11.1443 34.0147 13.1343C34.1228 14.5771 34.447 16.0697 35.0953 17.2637C34.591 17.6617 34.0508 18.209 33.5465 18.4577C32.538 18.9552 31.4215 19.4527 30.341 19.4527H27.9278V12.4378H23.2456V0H17.843V5.97015H8.83871V12.4378H4.15647V19.403H0.122539L0.0505051 20.1493C-0.129581 23.3333 0.158557 26.4179 1.13102 29.3532L1.52721 30.4478L1.56323 30.5473C4.40859 37.2139 9.37897 40 14.8176 40C25.3346 40 34.0147 33.4826 37.9766 19.801C40.6419 20 43.3792 18.9055 44.6758 15.3731L45 14.4776L44.4237 13.9801ZM9.55905 7.46269H13.1608V12.9353H9.55905V7.46269ZM14.2773 29.4527C14.2773 30.2985 13.7731 30.995 13.1608 30.995C12.5485 30.995 12.0442 30.2985 12.0442 29.4527C12.0442 28.607 12.5485 27.9104 13.1608 27.9104C13.7731 27.9602 14.2773 28.607 14.2773 29.4527ZM9.55905 13.9303H13.1608V19.403H9.55905V13.9303ZM4.87681 13.9303H8.83871V19.403H4.87681V13.9303ZM14.8536 38.9055C9.16286 38.8557 6.1014 36.2189 3.58019 32.7363C4.33655 32.7861 5.0569 32.8358 5.70521 32.8358C6.28148 32.8358 6.85776 32.8358 7.39802 32.7861C8.80269 32.6866 10.0273 32.4378 11.0358 32.0398C11.8642 34.6766 13.3769 37.1144 16.0782 38.9055H14.8536ZM17.843 19.403H13.8811V13.9303H17.843V19.403ZM17.843 12.9353H13.8811V7.46269H17.843V12.9353ZM22.5253 19.403H18.5634V13.9303H22.5253V19.403ZM22.5253 12.9353H18.5634V7.46269H22.5253V12.9353ZM22.5253 6.46766H18.5634V0.995025H22.5253V6.46766ZM27.2075 19.403H23.2456V13.9303H27.2075V19.403ZM13.4489 28.4577C13.3769 28.408 13.2688 28.3582 13.1608 28.3582C12.7286 28.3582 12.3684 28.8557 12.3684 29.4527C12.3684 30.0497 12.7286 30.5473 13.1608 30.5473C13.593 30.5473 13.9532 30.0497 13.9532 29.4527C13.9532 29.3035 13.9171 29.1542 13.8811 29.0547C13.8091 29.204 13.7371 29.3035 13.593 29.3035C13.4129 29.3035 13.2688 29.1045 13.2688 28.8557C13.3048 28.6567 13.3769 28.5075 13.4489 28.4577Z" fill="#019BC6"/>
</svg>
