<svg width="40" height="45" viewBox="0 0 40 45" fill="none" xmlns="http://www.w3.org/2000/svg">
<path d="M10 45C15.5349 45 20 41.6512 20 37.5V30H10C4.46512 30 0 33.3488 0 37.5C0 41.6512 4.46512 45 10 45Z" fill="#0ACF83"/>
<path d="M0 22.5C0 18.3488 4.46512 15 10 15H20V30H10C4.46512 30 0 26.6512 0 22.5Z" fill="#A259FF"/>
<path d="M0 7.5C0 3.34884 4.46512 0 10 0H20V15H10C4.46512 15 0 11.6512 0 7.5Z" fill="#F24E1E"/>
<path d="M20 0H30C35.5349 0 40 3.34884 40 7.5C40 11.6512 35.5349 15 30 15H20V0Z" fill="#FF7262"/>
<path d="M40 22.5C40 26.6512 35.5349 30 30 30C24.4651 30 20 26.6512 20 22.5C20 18.3488 24.4651 15 30 15C35.5349 15 40 18.3488 40 22.5Z" fill="#1ABCFE"/>
</svg>
