<svg width="20" height="20" viewBox="0 0 20 20" fill="none" xmlns="http://www.w3.org/2000/svg">
<g clip-path="url(#clip0_137_10)">
<path fill-rule="evenodd" clip-rule="evenodd" d="M10.0001 0.797363C4.78961 0.797363 0.564453 5.02158 0.564453 10.233C0.564453 14.402 3.26805 17.9388 7.01711 19.1866C7.48852 19.2741 7.66164 18.9819 7.66164 18.7327C7.66164 18.5077 7.65289 17.7644 7.64883 16.976C5.02383 17.5467 4.46992 15.8627 4.46992 15.8627C4.0407 14.7721 3.42227 14.482 3.42227 14.482C2.56602 13.8964 3.4868 13.9086 3.4868 13.9086C4.43414 13.975 4.9332 14.881 4.9332 14.881C5.77477 16.3231 7.14055 15.9063 7.67898 15.6653C7.76367 15.0555 8.0082 14.6391 8.27805 14.4035C6.18227 14.1652 3.97898 13.356 3.97898 9.74049C3.97898 8.71033 4.34773 7.86861 4.95133 7.20768C4.8532 6.97018 4.53023 6.01049 5.04258 4.7108C5.04258 4.7108 5.83477 4.45721 7.63789 5.67799C8.3907 5.46877 9.19805 5.36361 10.0001 5.36002C10.8016 5.36361 11.6095 5.46846 12.3637 5.67768C14.1646 4.45689 14.9559 4.71049 14.9559 4.71049C15.4695 6.01002 15.1465 6.96986 15.0485 7.20736C15.6535 7.8683 16.0196 8.71002 16.0196 9.74018C16.0196 13.3642 13.8123 14.1621 11.7112 14.3958C12.0498 14.6886 12.3513 15.263 12.3513 16.1431C12.3513 17.4056 12.3404 18.4217 12.3404 18.7325C12.3404 18.9836 12.5104 19.2778 12.9885 19.1852C16.7354 17.9361 19.4359 14.4005 19.4359 10.233C19.4357 5.02189 15.211 0.797363 10.0001 0.797363Z" fill="white"/>
</g>
<defs>
<clipPath id="clip0_137_10">
<rect width="20" height="20" rx="10" fill="white"/>
</clipPath>
</defs>
</svg>
