<svg width="45" height="45" viewBox="0 0 45 45" fill="none" xmlns="http://www.w3.org/2000/svg">
<path d="M4.09534 40.5017L0 0H45L40.9002 40.4956L22.4726 45L4.09534 40.5017Z" fill="#E44D26"/>
<path d="M22.5 41.5571L37.3906 37.9167L40.894 3.31152H22.5V41.5571Z" fill="#F16529"/>
<path d="M22.4999 18.3331H15.0452L14.5303 13.2462H22.4999V8.27905H8.37354L8.50861 9.61161L9.89296 23.3006H22.4999V18.3331ZM22.4999 31.2338L22.4749 31.24L16.2011 29.7457L15.8004 25.7845H10.1447L10.9339 33.5838L22.4741 36.4085L22.4999 36.4023V31.2338Z" fill="#EBEBEB"/>
<path d="M22.4805 18.3331V23.3006H29.4174L28.7637 29.7428L22.4805 31.2382V36.4063L34.0297 33.5838L34.1144 32.7447L35.4382 19.6671L35.5753 18.3331H34.0575H22.4805ZM22.4805 8.27905V13.2462H36.0882L36.2012 12.1302L36.4582 9.61161L36.5929 8.27905H22.4805Z" fill="white"/>
</svg>
