<svg width="45" height="45" viewBox="0 0 45 45" fill="none" xmlns="http://www.w3.org/2000/svg">
<path d="M0 0H45V45H0V0Z" fill="#F0DB4F"/>
<path d="M41.3173 34.2674C40.9877 32.2144 39.649 30.4901 35.6837 28.8822C34.3062 28.2491 32.7705 27.7959 32.3129 26.752C32.1504 26.1445 32.1289 25.8022 32.2317 25.4345C32.5268 24.2411 33.9514 23.869 35.0805 24.2112C35.8077 24.455 36.4961 25.0154 36.9113 25.9094C38.8531 24.6519 38.8492 24.6602 40.2051 23.7961C39.7087 23.0264 39.4437 22.6713 39.1188 22.342C37.9509 21.0375 36.3595 20.3656 33.8144 20.4171L32.4887 20.5885C31.2183 20.9095 30.0076 21.5763 29.2977 22.4703C27.1675 24.8874 27.775 29.1176 30.3671 30.8585C32.9208 32.7752 36.6722 33.2112 37.1514 35.0035C37.6176 37.1977 35.5388 37.908 33.4726 37.6557C31.9499 37.339 31.1029 36.5651 30.1874 35.1578C28.5022 36.133 28.5022 36.133 26.7695 37.1294C27.1804 38.0277 27.6121 38.4343 28.3009 39.2126C31.5605 42.5189 39.7177 42.3565 41.1807 37.3519C41.24 37.1801 41.634 36.0341 41.3173 34.2674ZM24.4635 20.682H20.2545L20.2372 31.5638C20.2372 33.878 20.3569 35.9996 19.9806 36.6499C19.3648 37.9289 17.7691 37.7704 17.0419 37.5223C16.3017 37.1586 15.9254 36.6413 15.4893 35.9101C15.3696 35.7002 15.2798 35.5377 15.2496 35.5251L11.8274 37.6208C12.3964 38.7887 13.2347 39.8024 14.3085 40.461C15.9124 41.4236 18.0682 41.7188 20.3228 41.2011C21.7901 40.7737 23.0562 39.8884 23.719 38.5407C24.6774 36.7739 24.4718 34.6354 24.4632 32.2701C24.4847 28.4113 24.4635 24.5531 24.4635 20.682Z" fill="#323330"/>
</svg>
