<svg width="45" height="45" viewBox="0 0 45 45" fill="none" xmlns="http://www.w3.org/2000/svg">
<path d="M33.6905 32.8257C33.9878 30.4261 33.8988 30.0738 35.742 30.4628L36.2098 30.5025C37.6272 30.5649 39.4813 30.2814 40.5707 29.7906C42.9157 28.7354 44.3058 26.9741 41.9941 27.4365C36.72 28.4918 36.3575 26.7599 36.3575 26.7599C41.9267 18.747 44.2547 8.57507 42.2449 6.08506C36.7639 -0.706168 27.2766 2.50524 27.1179 2.58825L27.0672 2.59744C26.0251 2.3877 24.8589 2.26245 23.5487 2.24188C21.162 2.20368 19.351 2.84868 17.9772 3.85878C17.9772 3.85878 1.05216 -2.90306 1.83964 12.3624C2.00706 15.6098 6.63954 36.9349 12.1652 30.4937C14.1848 28.1385 16.1363 26.1469 16.1363 26.1469C17.1052 26.771 18.2658 27.0898 19.4825 26.9752L19.5768 26.8973C19.5472 27.1897 19.5601 27.4758 19.6143 27.8145C18.1912 29.3568 18.6094 29.6276 15.7636 30.1954C12.8841 30.7706 14.5757 31.7951 15.6799 32.0628C17.0189 32.3875 20.1162 32.8474 22.2093 30.0066L22.126 30.3306C22.6843 30.764 22.6468 33.4443 22.7256 35.3591C22.8047 37.2743 22.9369 39.0612 23.3396 40.115C23.7422 41.1685 24.2172 43.8822 27.9573 43.105C31.083 42.457 33.4727 41.5222 33.6905 32.8257Z" fill="black"/>
<path d="M26.7397 45C25.0856 45 24.0083 44.3796 23.3542 43.7805C22.3667 42.8769 21.975 41.7129 21.7409 41.0176L21.6398 40.7274C21.1686 39.494 21.0088 37.718 20.9141 35.4312C20.8997 35.0877 20.8898 34.734 20.8788 34.359C20.8709 34.0846 20.861 33.7404 20.8466 33.3805C20.2507 33.656 19.6181 33.8498 18.9671 33.9564C17.8009 34.1496 16.5471 34.0872 15.2399 33.7702C14.3176 33.5465 13.3593 33.0829 12.8131 32.367C11.2211 33.7191 9.70255 33.5358 8.87529 33.2681C7.41585 32.7961 6.10982 31.4697 4.88219 29.214C4.00759 27.607 3.16177 25.5134 2.36785 22.9907C0.9853 18.5976 0.106909 13.9706 0.0288805 12.4514C-0.216569 7.69653 1.10348 4.29596 3.95153 2.34517C8.44424 -0.732173 15.2513 1.07757 17.7331 1.89925C19.4005 0.924771 21.3622 0.450572 23.5788 0.484732C24.7693 0.503464 25.903 0.604843 26.956 0.787029C28.0544 0.452041 30.2241 -0.0287706 32.7078 0.00134899C37.2838 0.0542419 41.0758 1.78355 43.6731 5.0023C45.5268 7.29874 44.6102 12.1212 43.8992 14.7915C42.8985 18.5477 41.1451 22.5425 38.9913 26.0203C39.5762 26.0243 40.4235 25.9563 41.628 25.715C44.0045 25.2394 44.6996 26.475 44.8882 27.0282C45.6439 29.2475 42.3591 30.9246 41.3345 31.386C40.0216 31.977 37.8811 32.3369 36.1281 32.2591L36.0516 32.2543L35.591 32.215L35.5456 32.5874L35.5016 32.9514C35.3838 37.3588 34.7346 40.15 33.3987 41.9943C31.9983 43.9278 30.0521 44.4696 28.3378 44.8259C27.7529 44.9471 27.2215 45 26.7397 45ZM23.2587 28.9591C24.3265 29.7878 24.42 31.347 24.5038 34.2609C24.5144 34.6245 24.5242 34.9687 24.5375 35.2901C24.5776 36.2635 24.6719 38.5427 25.0401 39.5057C25.092 39.642 25.1386 39.7801 25.1878 39.9267C25.5981 41.1447 25.8037 41.7555 27.5776 41.3879C29.0665 41.0782 29.8321 40.8005 30.4313 39.9733C31.3021 38.7708 31.7892 36.3516 31.8786 32.7832L33.6903 32.8258L31.8911 32.6164L31.9441 32.1808C32.1165 30.7446 32.2407 29.7073 33.2305 29.0212C34.0248 28.471 34.9297 28.5242 35.6505 28.6502C34.8585 28.0699 34.6395 27.3892 34.5812 27.1101L34.4301 26.3883L34.8547 25.7775C37.3005 22.2586 39.3171 17.9339 40.3883 13.9118C41.489 9.77919 41.1534 7.5845 40.8178 7.16944C36.3751 1.66454 28.6711 3.93746 27.8666 4.19532L27.7306 4.26657L27.0488 4.38962L26.6995 4.31947C25.7367 4.12553 24.667 4.01827 23.5204 4.00027C21.719 3.97089 20.2656 4.38375 19.0739 5.26052L18.2471 5.86842L17.2876 5.48532C15.2377 4.67245 9.21657 3.03828 6.03936 5.22048C4.27576 6.43188 3.47237 8.80545 3.65115 12.2754C3.71024 13.4211 4.51288 17.7579 5.83709 21.964C7.66698 27.7767 9.32983 29.7077 10.0241 29.9321C10.1453 29.9718 10.4597 29.7349 10.7726 29.3705C12.0771 27.854 13.4279 26.3755 14.8233 24.9371L15.8725 23.8663L17.141 24.6836C17.6524 25.0131 18.2164 25.2001 18.7955 25.2353L21.8209 22.7332L21.3826 27.0704C21.3728 27.1677 21.3678 27.3003 21.4072 27.5464L21.539 28.3685L20.9671 28.9885L20.9012 29.0605L22.5633 29.8043L23.2587 28.9591Z" fill="black"/>
<path d="M41.9943 27.4366C36.7197 28.4919 36.3573 26.76 36.3573 26.76C41.9265 18.7467 44.2544 8.57439 42.2454 6.08512C36.7644 -0.705747 27.2764 2.50566 27.118 2.58904L27.0669 2.59786C26.0249 2.38812 24.8586 2.26324 23.5477 2.24267C21.161 2.20483 19.3508 2.84947 17.9769 3.85957C17.9769 3.85957 1.05153 -2.9019 1.83864 12.3632C2.00606 15.611 6.63854 36.936 12.1642 30.4948C14.1838 28.1396 16.1349 26.1481 16.1349 26.1481C17.1042 26.7721 18.2644 27.091 19.4807 26.9764L19.5754 26.8985C19.5459 27.1909 19.5595 27.477 19.6133 27.8157C18.1898 29.358 18.608 29.6287 15.7622 30.1966C12.8827 30.7718 14.5744 31.7962 15.6789 32.064C17.0175 32.3887 20.1152 32.8486 22.2079 30.0078L22.1242 30.3317C22.6821 30.7652 23.0738 33.1498 23.0083 35.3114C22.9424 37.473 22.8984 38.9573 23.3382 40.1166C23.7776 41.2758 24.2155 43.8837 27.9563 43.1065C31.082 42.4571 32.7016 40.7737 32.9274 37.966C33.0872 35.9696 33.449 36.2649 33.4721 34.4802L33.7626 33.6354C34.0974 30.9294 33.8156 30.0566 35.7417 30.4625L36.2095 30.5022C37.6269 30.5646 39.4818 30.2811 40.5708 29.7903C42.9154 28.7358 44.306 26.9741 41.9943 27.4366Z" fill="#336791"/>
<path d="M26.9285 43.9167C23.8104 43.9167 22.8226 41.5222 22.4184 40.543C21.8268 39.1079 21.6991 33.5387 21.8309 28.9715C21.8329 28.8945 21.8505 28.8186 21.8829 28.7483C21.9152 28.6779 21.9616 28.6144 22.0193 28.5615C22.0771 28.5086 22.145 28.4673 22.2193 28.4399C22.2936 28.4126 22.3727 28.3998 22.4521 28.4022C22.5314 28.4043 22.6096 28.4215 22.682 28.4529C22.7545 28.4843 22.8198 28.5293 22.8744 28.5852C22.9289 28.6411 22.9715 28.7069 22.9998 28.7788C23.0281 28.8507 23.0415 28.9273 23.0392 29.0042C22.8873 34.2719 23.1029 39.0454 23.5407 40.1077C24.2241 41.7639 25.2604 43.2126 28.1903 42.604C30.9716 42.0254 32.0133 41.0028 32.4773 38.3946C32.8333 36.3931 33.5375 30.699 33.6242 29.5754C33.63 29.4986 33.6514 29.4237 33.6871 29.3549C33.7228 29.2862 33.7722 29.2249 33.8324 29.1747C33.8925 29.1245 33.9623 29.0863 34.0378 29.0622C34.1132 29.0382 34.1928 29.0289 34.2719 29.0347C34.4317 29.0465 34.5802 29.1192 34.6847 29.237C34.7892 29.3547 34.8413 29.5079 34.8295 29.6628C34.739 30.8327 34.0382 36.5158 33.6686 38.594C33.1208 41.6747 31.7046 43.0719 28.4437 43.75C27.8895 43.8649 27.3861 43.9164 26.9285 43.9167ZM10.0213 32.2212C9.74876 32.2203 9.47814 32.1768 9.21981 32.0926C7.19448 31.4373 5.26535 28.2388 3.48584 22.5847C2.13132 18.2809 1.27301 13.7887 1.19763 12.3286C0.974528 8.00024 2.12375 4.93796 4.61423 3.22739C9.54102 -0.157759 17.8291 3.06577 18.1795 3.20461C18.3279 3.26341 18.4462 3.37697 18.5083 3.52031C18.5703 3.66366 18.5712 3.82506 18.5105 3.96899C18.4499 4.11292 18.3328 4.22761 18.185 4.28781C18.0372 4.34802 17.8707 4.34881 17.7223 4.29002C17.6424 4.25843 9.6948 1.17081 5.31042 4.18534C3.18092 5.64944 2.20329 8.36976 2.40442 12.2702C2.46768 13.5004 3.26956 17.8846 4.6415 22.2424C6.2301 27.29 8.03802 30.475 9.602 30.9807C9.84745 31.0601 10.5944 31.3014 11.6622 30.0562C12.9074 28.606 14.1993 27.1941 15.536 25.8226C15.6478 25.7144 15.7989 25.653 15.9569 25.6514C16.1148 25.6499 16.2671 25.7084 16.3812 25.8144C16.4952 25.9204 16.562 26.0655 16.5671 26.2186C16.5722 26.3717 16.5154 26.5206 16.4087 26.6336C16.3905 26.652 14.5727 28.4948 12.5917 30.8059C11.6535 31.9001 10.7543 32.2212 10.0213 32.2212ZM36.3196 27.2826C36.2101 27.2825 36.1026 27.2535 36.0087 27.1987C35.9148 27.1439 35.8381 27.0654 35.7866 26.9716C35.7352 26.8778 35.711 26.7721 35.7167 26.666C35.7224 26.5599 35.7577 26.4573 35.8189 26.3691C41.4487 18.2681 43.4248 8.47958 41.7324 6.38223C39.6021 3.74273 36.5942 2.3642 32.7917 2.2845C29.9762 2.22573 27.7384 2.92289 27.3725 3.04447L27.2804 3.08083C26.9126 3.19286 26.6304 2.99745 26.524 2.76898C26.4633 2.63808 26.4541 2.49018 26.4981 2.35316C26.5422 2.21613 26.6364 2.09947 26.763 2.02518C26.7804 2.01526 26.8357 1.99248 26.9255 1.96053C27.5471 1.73977 29.819 1.07861 32.633 1.10983C36.8405 1.15318 40.3161 2.72637 42.6835 5.66009C43.8036 7.04817 43.8062 10.246 42.6907 14.4341C41.5536 18.7041 39.4139 23.2929 36.8208 27.0244C36.7049 27.1923 36.514 27.2826 36.3196 27.2826ZM36.6075 31.0329C35.6462 31.0329 34.7844 30.9014 34.2685 30.6017C33.7382 30.2935 33.6371 29.8748 33.6239 29.6525C33.4792 27.1879 34.8814 26.7589 35.5965 26.5631C35.4969 26.4169 35.3553 26.245 35.2087 26.0676C34.7916 25.5622 34.2204 24.8701 33.7803 23.8351C33.7114 23.6734 33.4955 23.2977 33.2455 22.8624C31.8898 20.505 29.069 15.5996 30.8811 13.0875C31.7197 11.925 33.3898 11.4673 35.8503 11.7226C35.1265 9.58409 31.6796 2.8946 23.5006 2.76457C21.0408 2.72491 19.0234 3.45843 17.5075 4.94273C14.1137 8.26654 14.2364 14.2805 14.2383 14.3408C14.2404 14.4177 14.2268 14.4943 14.1984 14.5662C14.1699 14.638 14.1272 14.7037 14.0726 14.7596C14.0179 14.8154 13.9525 14.8603 13.88 14.8916C13.8075 14.9229 13.7294 14.94 13.65 14.9421C13.5707 14.9441 13.4917 14.9309 13.4176 14.9034C13.3435 14.8758 13.2757 14.8343 13.2182 14.7814C13.1606 14.7284 13.1143 14.665 13.082 14.5947C13.0497 14.5244 13.0321 14.4486 13.03 14.3716C13.0224 14.1046 12.8959 7.79344 16.6488 4.11775C18.4052 2.39763 20.7173 1.5484 23.5207 1.59285C28.7531 1.67623 32.1212 4.25586 34.025 6.405C36.1003 8.74735 37.1177 11.331 37.2014 12.1935C37.2639 12.8348 36.7893 12.963 36.6935 12.9821L36.4753 12.9869C34.0606 12.6118 32.5114 12.8723 31.8709 13.7597C30.4925 15.6701 33.161 20.3103 34.3004 22.292C34.5913 22.7974 34.8011 23.1629 34.8973 23.3884C35.2716 24.2685 35.7598 24.8599 36.1518 25.3352C36.4969 25.7532 36.7958 26.1157 36.9026 26.541C36.9522 26.6255 37.6563 27.6356 41.8347 26.7993C42.882 26.5899 43.51 26.7688 43.7021 27.3319C44.0797 28.4393 41.9608 29.7311 40.7877 30.2593C39.7366 30.7332 38.059 31.0329 36.6075 31.0329ZM34.8288 29.5559C34.9613 29.6856 35.6246 29.9093 36.998 29.852C38.2192 29.8013 39.5071 29.5438 40.2798 29.196C41.268 28.7508 41.9279 28.2531 42.2695 27.9133L42.0801 27.9471C39.4086 28.4819 37.5189 28.4107 36.4636 27.7352C36.3927 27.6897 36.3244 27.6406 36.259 27.5879C36.1446 27.6316 36.039 27.6602 35.9636 27.6808C35.3651 27.8435 34.7462 28.0121 34.8288 29.5559ZM17.5708 32.8305C16.9072 32.8305 16.2087 32.7427 15.4954 32.5697C14.7564 32.3905 13.5106 31.8509 13.5296 30.9646C13.5512 29.9703 15.0424 29.672 15.6038 29.56C17.6318 29.1548 17.764 28.9925 18.3977 28.2119C18.5825 27.9846 18.8124 27.7014 19.126 27.362C19.5916 26.8566 20.1003 26.6005 20.6381 26.6005C21.0128 26.6005 21.3199 26.7236 21.523 26.8055C22.1699 27.0656 22.7097 27.6944 22.9317 28.4463C23.132 29.1247 23.0362 29.7778 22.6627 30.2851C21.4366 31.9501 19.6757 32.8305 17.5708 32.8305ZM14.8352 31.0149C15.0174 31.1515 15.3826 31.3341 15.789 31.4325C16.4068 31.5824 17.006 31.6584 17.5712 31.6584C19.2931 31.6584 20.6756 30.9672 21.6798 29.6037C21.8892 29.3194 21.8264 28.9583 21.7703 28.7684C21.6529 28.3706 21.3612 28.0088 21.0609 27.888C20.898 27.8226 20.7628 27.7726 20.6385 27.7726C20.5719 27.7726 20.3688 27.7726 20.0272 28.1433C19.7914 28.4004 19.5648 28.6653 19.3476 28.9374C18.5583 29.9093 18.1965 30.2391 15.8481 30.7082C15.275 30.8221 14.9811 30.9381 14.8352 31.0149ZM19.4825 28.3115C19.3382 28.3113 19.1988 28.261 19.0893 28.1698C18.9799 28.0786 18.9078 27.9524 18.8859 27.8141C18.8709 27.7169 18.8608 27.6189 18.8556 27.5207C17.3162 27.4927 15.831 26.8522 14.7034 25.7113C13.2777 24.2689 12.6288 22.2703 12.9235 20.2284C13.2436 18.011 13.1239 16.0536 13.0595 15.0019C13.0417 14.7096 13.0288 14.4984 13.0296 14.3522C13.0307 14.1667 13.0345 13.6748 14.7299 12.8414C15.3329 12.545 16.542 12.0278 17.8628 11.8952C20.051 11.6759 21.4934 12.621 21.9252 14.5568C23.0907 19.7829 22.0177 22.0944 21.234 23.7825C21.0881 24.0969 20.9503 24.3937 20.84 24.6813L20.7427 24.9348C20.3287 26.0114 19.9707 26.9414 20.0806 27.636C20.0926 27.7121 20.0891 27.7897 20.0702 27.8645C20.0513 27.9392 20.0175 28.0096 19.9705 28.0717C19.9235 28.1337 19.8644 28.1862 19.7965 28.2261C19.7287 28.266 19.6534 28.2925 19.5749 28.3041L19.4825 28.3115ZM14.2421 14.5145L14.2655 14.9329C14.3322 16.0253 14.4564 18.058 14.1201 20.3911C13.8773 22.0753 14.4076 23.719 15.5757 24.9003C16.4988 25.834 17.7136 26.3493 18.962 26.3493H18.9878C19.1276 25.7781 19.3598 25.175 19.6098 24.5252L19.7063 24.2733C19.831 23.9486 19.9768 23.6341 20.1313 23.3014C20.8855 21.6764 21.8245 19.6536 20.7431 14.8047C20.5291 13.8442 20.0097 13.2884 19.1564 13.1051C17.4034 12.7297 14.7909 14.0084 14.2421 14.5145ZM17.8897 14.2658C17.8594 14.473 18.281 15.0262 18.831 15.1C19.3798 15.1746 19.8495 14.7419 19.8794 14.5347C19.9094 14.3276 19.4882 14.0991 18.9382 14.0249C18.3886 13.9507 17.9189 14.0587 17.8897 14.2658ZM18.9571 15.3039L18.8029 15.2936C18.462 15.2477 18.1174 15.0394 17.8814 14.736C17.7984 14.6295 17.6632 14.4231 17.6901 14.2387C17.7284 13.9683 18.0685 13.8063 18.5992 13.8063C18.7177 13.8063 18.8412 13.8148 18.9654 13.8317C19.2556 13.8706 19.5249 13.9518 19.7238 14.0594C20.0685 14.246 20.0938 14.4543 20.0783 14.5619C20.0359 14.8605 19.5461 15.3039 18.9571 15.3039ZM18.0901 14.3004C18.1071 14.4282 18.4336 14.8499 18.8586 14.9068L18.9575 14.9134C19.3499 14.9134 19.6431 14.6141 19.6776 14.516C19.6412 14.4491 19.3889 14.2831 18.9105 14.2185C18.8075 14.2041 18.7036 14.1969 18.5995 14.1968C18.292 14.1968 18.1287 14.264 18.0901 14.3004ZM34.6068 13.8431C34.6367 14.0502 34.2155 14.6034 33.6659 14.6776C33.1167 14.7518 32.6466 14.3195 32.6163 14.1123C32.5875 13.9051 33.0087 13.6763 33.5579 13.6025C34.1072 13.5279 34.5765 13.6363 34.6068 13.8431ZM33.539 14.7834C33.0102 14.7834 32.5538 14.3845 32.5163 14.1255C32.4727 13.8148 33.0004 13.5786 33.5436 13.5055C33.6632 13.4893 33.7818 13.4813 33.8958 13.4813C34.3647 13.4813 34.6754 13.6146 34.7064 13.8298C34.7265 13.9691 34.6163 14.1839 34.4265 14.3779C34.3011 14.5053 34.0379 14.7261 33.6792 14.7742L33.539 14.7834ZM33.8962 13.6767C33.7917 13.6767 33.6826 13.6844 33.572 13.6991C33.0261 13.7729 32.7004 13.9852 32.7163 14.0991C32.7345 14.2243 33.083 14.5883 33.5394 14.5883L33.6519 14.5806C33.95 14.5406 34.1738 14.3518 34.2807 14.2431C34.4485 14.0723 34.5151 13.9114 34.5072 13.8567C34.4966 13.7839 34.2951 13.6767 33.8962 13.6767ZM35.3981 25.7403C35.2886 25.7404 35.1811 25.7115 35.0872 25.6569C34.9933 25.6023 34.9165 25.524 34.8649 25.4303C34.8134 25.3366 34.7892 25.2311 34.7947 25.125C34.8003 25.019 34.8355 24.9164 34.8966 24.8283C36.1837 22.9642 35.9481 21.0633 35.7204 19.2249C35.6231 18.4418 35.5231 17.6319 35.5488 16.8547C35.5753 16.055 35.6803 15.3953 35.7814 14.7573C35.9015 14.0014 36.0151 13.2873 35.9681 12.4396C35.9638 12.3627 35.9752 12.2858 36.0016 12.2132C36.028 12.1407 36.0688 12.0738 36.1218 12.0166C36.1748 11.9593 36.2389 11.9127 36.3105 11.8795C36.3821 11.8462 36.4597 11.827 36.5389 11.8229C36.6182 11.8187 36.6975 11.8297 36.7723 11.8553C36.8472 11.8809 36.9161 11.9205 36.9752 11.9719C37.0342 12.0233 37.0822 12.0855 37.1165 12.1549C37.1508 12.2243 37.1706 12.2996 37.1749 12.3764C37.2287 13.3454 37.1003 14.1534 36.9761 14.9355C36.8802 15.5389 36.781 16.163 36.7571 16.8921C36.734 17.5805 36.8245 18.3114 36.9204 19.085C37.1628 21.0398 37.4374 23.2554 35.9011 25.4802C35.8458 25.5604 35.7709 25.626 35.6832 25.6714C35.5954 25.7167 35.4975 25.7404 35.3981 25.7403Z" fill="white"/>
</svg>
