<svg width="45" height="45" viewBox="0 0 45 45" fill="none" xmlns="http://www.w3.org/2000/svg">
<g clip-path="url(#clip0_103_161)">
<path d="M39.7678 9.16383C32.4029 -0.373361 18.7001 -2.13399 9.16254 5.2323C-0.373589 12.5986 -2.13246 26.3014 5.23383 35.8376C12.6015 45.3734 26.3054 47.1312 35.8402 39.7635C45.3724 32.3972 47.1316 18.6986 39.7678 9.16383Z" fill="#F37036"/>
<path d="M32.0196 8.49516C31.2684 8.55518 30.5562 8.85406 29.9872 9.34806C29.3211 9.92632 28.896 10.7333 28.7958 11.6096C28.6955 12.486 28.9275 13.3681 29.4458 14.0818C29.9634 14.7959 30.7298 15.29 31.5938 15.4667C32.4579 15.6434 33.3568 15.4899 34.1131 15.0363H34.1138L34.1687 15.0912C34.4178 14.9484 34.6496 14.7773 34.8595 14.5814C35.5069 13.8965 35.8631 12.987 35.8528 12.0445C35.8426 11.1021 35.4668 10.2005 34.8046 9.52981V9.52911L31.6954 12.619L31.6406 12.5645L34.7498 9.47321C34.3899 9.12621 33.9604 8.85964 33.4897 8.69114C33.019 8.52265 32.5179 8.45609 32.0196 8.49587V8.49516ZM27.926 13.5531C26.4354 13.5506 24.0015 15.2402 18.0587 21.1831L18.0882 21.2133C18.0559 21.202 18.0232 21.201 18.0232 21.201L15.7858 23.4186C15.7284 23.4733 15.6903 23.5452 15.6775 23.6235C15.6647 23.7017 15.6778 23.782 15.7148 23.8521C15.7518 23.9223 15.8107 23.9784 15.8826 24.0119C15.9544 24.0455 16.0352 24.0547 16.1128 24.0381L19.9497 23.2197C19.9667 23.2037 19.978 23.1828 19.9821 23.1599L20.0672 23.2478L18.7593 24.545H18.6961L10.9314 32.3708L13.4226 34.7699C13.4923 34.8327 13.5802 34.8716 13.6735 34.881C13.7668 34.8905 13.8607 34.8699 13.9415 34.8223C14.023 34.775 14.0883 34.7042 14.1288 34.6191C14.1693 34.534 14.1831 34.4386 14.1683 34.3456L13.8044 32.7635C13.7817 32.7317 13.7695 32.6936 13.7695 32.6545C13.7695 32.6155 13.7817 32.5774 13.8044 32.5456C17.2055 30.9242 20.3683 28.8443 23.2045 26.364L21.6102 24.769L21.6404 24.7641L20.6947 23.8187L20.7552 23.7575L20.8191 23.8229L20.7861 23.8549L23.2952 26.4189V26.4178C28.1046 21.8637 31.5182 18.2029 30.6305 15.7391C30.5901 15.4445 30.4533 15.1715 30.2414 14.9629V14.9643C30.1876 14.9242 30.1308 14.8882 30.0716 14.8567C30.0424 14.8258 30.0167 14.7941 29.9858 14.7639L29.9626 14.7871C29.8974 14.7473 29.829 14.7132 29.758 14.6851L29.8596 14.5825C29.2282 14.02 28.7064 13.5545 27.926 13.5524V13.5531ZM10.8773 32.4176L9.05938 34.2359V34.2373C8.99415 34.2777 8.94344 34.3377 8.91456 34.4088C8.88569 34.4799 8.88014 34.5583 8.89871 34.6328C8.91665 34.7072 8.95759 34.7741 9.01572 34.8239C9.07386 34.8737 9.14621 34.9039 9.2225 34.9102L13.6775 35.2178L10.8773 32.4176Z" fill="white"/>
<path d="M32.3261 8.19495C31.3057 8.19368 30.3259 8.59401 29.5983 9.3094C29.0806 9.8392 28.7262 10.5067 28.5772 11.2323C28.4282 11.9579 28.491 12.711 28.7581 13.4019C27.0913 12.6883 24.8364 13.9328 17.8224 20.9454C17.8175 20.9562 17.8131 20.9672 17.8094 20.9785C17.7951 20.985 17.7811 20.9922 17.7675 21.0003L15.5495 23.2376C15.4432 23.342 15.3734 23.4778 15.3504 23.625C15.3274 23.7722 15.3525 23.9228 15.4219 24.0546C15.4839 24.1589 15.5716 24.2455 15.6767 24.3061C15.7818 24.3667 15.9007 24.3992 16.022 24.4006L16.1321 24.3292L19.0936 23.6974L17.6768 25.1273C17.6686 25.146 17.6622 25.1656 17.6579 25.1856L10.7145 32.1462C10.6868 32.1695 10.6639 32.1979 10.647 32.2299L8.85895 34.0193C8.76984 34.1134 8.70894 34.2306 8.68321 34.3576C8.65748 34.4846 8.66794 34.6162 8.7134 34.7376C8.76003 34.8582 8.83907 34.9635 8.94181 35.042C9.04455 35.1205 9.16699 35.169 9.29559 35.1823L13.7316 35.4917C13.8073 35.4651 13.8717 35.4137 13.9144 35.3458C13.9526 35.2928 13.9731 35.2291 13.9731 35.1638C13.9731 35.0985 13.9526 35.0349 13.9144 34.9819L13.9053 34.9731C14.001 34.9229 14.0854 34.8534 14.1531 34.7692C14.2244 34.6768 14.2741 34.5696 14.2988 34.4555C14.3235 34.3415 14.3225 34.2233 14.2959 34.1097L13.9499 32.6377C17.2688 31.0516 20.3785 29.0605 23.208 26.71C23.2354 26.7256 23.2647 26.7378 23.2952 26.7462C23.3845 26.7395 23.4681 26.7012 23.5314 26.6379C28.2951 22.1274 31.0953 19.0364 31.0953 16.5825C31.1056 16.2421 31.0543 15.9027 30.9438 15.5806C31.373 15.7586 31.831 15.8574 32.2955 15.8724L32.2902 15.8738C32.93 15.8542 33.5554 15.6793 34.1124 15.364C34.1129 15.3641 34.1133 15.3642 34.1138 15.3644C34.1859 15.386 34.2636 15.379 34.3307 15.345C34.5995 15.1868 34.8445 14.9912 35.0584 14.7642C35.421 14.4085 35.709 13.9841 35.9057 13.5158C36.1023 13.0475 36.2037 12.5447 36.2038 12.0368C36.2037 11.5289 36.1024 11.0262 35.9058 10.5579C35.7092 10.0896 35.4213 9.66515 35.0588 9.3094C35.0458 9.29765 35.032 9.28695 35.0173 9.27741C34.2936 8.58253 33.329 8.19474 32.3257 8.1953L32.3261 8.19495ZM32.2955 8.81792C33.006 8.82216 33.6956 9.05845 34.2593 9.49081L31.4229 12.3444C31.4132 12.3553 31.4043 12.3668 31.3962 12.3789C31.3451 12.4306 31.3151 12.4996 31.3122 12.5723C31.3122 12.6162 31.3221 12.6595 31.3412 12.6991C31.3602 12.7386 31.3879 12.7734 31.4222 12.8008H31.4229L33.5675 14.9453C32.9804 15.2013 32.3298 15.274 31.7008 15.154C31.0717 15.034 30.4936 14.7269 30.042 14.2728C29.1329 13.3587 28.8692 11.9862 29.3554 10.7955C29.8416 9.60366 31.0007 8.82495 32.2955 8.81792ZM34.7986 10.0245C35.2624 10.5856 35.5153 11.2913 35.5134 12.0192C35.5121 12.8721 35.1721 13.6895 34.5684 14.2917C34.4473 14.4056 34.3183 14.5108 34.1823 14.6064L32.4516 12.9024L32.1131 12.5638L32.2062 12.4707L34.7983 10.0238L34.7986 10.0245ZM34.67 11.4986C34.6063 11.4785 34.5376 11.4824 34.4766 11.5095C34.4163 11.5407 34.3708 11.5946 34.35 11.6592C34.3399 11.6915 34.3362 11.7255 34.3392 11.7593C34.3422 11.793 34.3519 11.8258 34.3676 11.8558C34.4301 11.9871 34.4547 12.1333 34.4388 12.2778C34.4228 12.4224 34.3669 12.5597 34.2773 12.6742C34.2544 12.6963 34.2364 12.7231 34.2246 12.7526C34.2128 12.7822 34.2073 12.814 34.2087 12.8458C34.2101 12.9105 34.2333 12.9723 34.2773 13.0187C34.3241 13.0366 34.376 13.0366 34.4228 13.0187C34.4651 13.0293 34.5094 13.0281 34.5511 13.0153C34.5927 13.0024 34.6301 12.9785 34.6591 12.946C34.8087 12.7625 34.9034 12.5405 34.9323 12.3056C34.9612 12.0707 34.9232 11.8324 34.8225 11.6181V11.6195C34.7883 11.5618 34.7339 11.5188 34.67 11.4986ZM27.8929 13.8621C28.3172 13.8762 28.7255 14.0274 29.0566 14.2932C28.6998 14.3445 28.3692 14.5097 28.114 14.7642L20.0959 22.7465L18.5223 21.1729C22.6806 17.0343 25.2231 14.8725 26.8038 14.1641C27.1293 13.9587 27.5081 13.854 27.8929 13.8621ZM29.2868 14.9028C29.5561 14.9028 29.8143 15.0095 30.0051 15.1995C30.1066 15.2947 30.1867 15.4104 30.24 15.539C30.2933 15.6676 30.3185 15.806 30.3141 15.9451C30.3095 16.0837 30.2764 16.2199 30.2168 16.3451C30.1572 16.4703 30.0725 16.5819 29.9678 16.6729L21.4424 24.093L20.5224 23.1729L28.5686 15.1995C28.7594 15.0096 29.0177 14.9027 29.2868 14.9028ZM30.3394 17.2575C29.7453 19.6137 26.5963 22.8062 23.3127 25.9084L21.9849 24.582L30.3394 17.2575ZM18.0586 21.6376L18.155 21.7326L19.39 22.9676L16.0045 23.6918L18.0586 21.6376ZM20.0952 23.6908L20.0966 23.6922L20.5073 24.1123C20.509 24.1222 20.5111 24.1321 20.5136 24.1418L20.541 24.146L20.6282 24.2353L20.9165 24.5307L19.0233 24.7627L20.0956 23.6904L20.0952 23.6908ZM21.4547 25.1237L22.7126 26.3809C19.9312 28.6938 16.8789 30.6601 13.623 32.2366C13.5173 32.2869 13.4323 32.3723 13.3825 32.4783C13.3327 32.5842 13.3211 32.7042 13.3498 32.8177L13.7137 34.3997C13.7271 34.4183 13.7343 34.4406 13.7343 34.4635C13.7343 34.4864 13.7271 34.5088 13.7137 34.5273C13.6937 34.5453 13.6678 34.5552 13.6409 34.5552C13.614 34.5552 13.5881 34.5453 13.5681 34.5273L11.4229 32.3645L18.0351 25.6553L21.4547 25.1237ZM10.9314 32.837L11.2369 33.1232L12.8161 34.7024L9.29489 34.4746L10.9314 32.837Z" fill="#F37036"/>
</g>
<defs>
<clipPath id="clip0_103_161">
<rect width="45" height="45" fill="white"/>
</clipPath>
</defs>
</svg>
