<svg width="45" height="45" viewBox="0 0 45 45" fill="none" xmlns="http://www.w3.org/2000/svg">
<path d="M22.2318 0.000314598C20.376 0.00822559 18.6047 0.150228 17.0451 0.398633C12.4518 1.12882 11.6185 2.65722 11.6185 5.4763V9.19882H22.4722V10.4397H7.54472C4.39052 10.4397 1.6284 12.1457 0.764245 15.3923C-0.232652 19.1125 -0.276607 21.4344 0.764245 25.319C1.53565 28.2109 3.37824 30.2709 6.53288 30.2709H10.2651V25.8083C10.2651 22.5842 13.3644 19.7406 17.0456 19.7406H27.887C30.905 19.7406 33.3137 17.5042 33.3137 14.7773V5.4767C33.3137 2.82928 30.832 0.840857 27.887 0.399029C26.0216 0.119771 24.0871 -0.00720084 22.2318 0.000314598ZM16.3621 2.99423C17.4829 2.99423 18.3989 3.83161 18.3989 4.86162C18.3989 5.88728 17.4834 6.71674 16.3621 6.71674C15.2368 6.71674 14.3256 5.88728 14.3256 4.86162C14.3252 3.83161 15.2368 2.99423 16.3621 2.99423Z" fill="url(#paint0_linear_102_85)"/>
<path d="M34.667 10.4397V14.7773C34.667 18.1394 31.4988 20.9696 27.8866 20.9696H17.0451C14.0755 20.9696 11.6184 23.2571 11.6184 25.9333V35.2347C11.6184 37.8813 14.1757 39.4386 17.0451 40.1977C20.4806 41.1062 23.7755 41.2708 27.8866 40.1977C30.6188 39.4853 33.3132 38.0526 33.3132 35.2347V31.5118H22.4722V30.2705H38.7408C41.895 30.2705 43.0712 28.2908 44.1683 25.3187C45.3015 22.2591 45.2527 19.3166 44.1683 15.3919C43.3886 12.5657 41.8998 10.4393 38.7408 10.4393L34.667 10.4397ZM28.5692 33.9935C29.6949 33.9935 30.606 34.8229 30.606 35.8494C30.606 36.8786 29.6944 37.716 28.5692 37.716C27.4483 37.716 26.5327 36.8786 26.5327 35.8494C26.5327 34.8229 27.4483 33.9935 28.5692 33.9935Z" fill="url(#paint1_linear_102_85)"/>
<path opacity="0.444" d="M37.1405 42.4622C37.1405 43.8636 30.6281 45 22.5954 45C14.5622 45 8.0498 43.8636 8.0498 42.4622C8.0498 41.0604 14.5617 39.924 22.5954 39.924C30.6281 39.924 37.1405 41.06 37.1405 42.4622Z" fill="url(#paint2_radial_102_85)"/>
<defs>
<linearGradient id="paint0_linear_102_85" x1="-1.08807" y1="1.16427" x2="21.6933" y2="22.7531" gradientUnits="userSpaceOnUse">
<stop stop-color="#5A9FD4"/>
<stop offset="1" stop-color="#306998"/>
</linearGradient>
<linearGradient id="paint1_linear_102_85" x1="33.3646" y1="32.3184" x2="25.5964" y2="20.213" gradientUnits="userSpaceOnUse">
<stop stop-color="#FFD43B"/>
<stop offset="1" stop-color="#FFE873"/>
</linearGradient>
<radialGradient id="paint2_radial_102_85" cx="0" cy="0" r="1" gradientUnits="userSpaceOnUse" gradientTransform="translate(22.5366 42.3895) rotate(-90) scale(2.53876 12.4014)">
<stop stop-color="#B8B8B8" stop-opacity="0.498"/>
<stop offset="1" stop-color="#7F7F7F" stop-opacity="0"/>
</radialGradient>
</defs>
</svg>
