<svg width="45" height="45" viewBox="0 0 60 45" fill="none" xmlns="http://www.w3.org/2000/svg">
<path d="M44.5826 0C39.4381 0 34.6992 3.06168 30.1193 8.4112C25.6189 2.97757 20.8004 0 15.4174 0C6.50411 0 0 6.72896 0 15.7878C0 24.8467 6.50411 31.4915 15.4174 31.4915C20.8958 31.4915 25.1418 28.7747 29.8807 23.3579C34.4606 28.7916 39.1201 31.5084 44.5826 31.5084C53.4959 31.4915 60 24.8719 60 15.7878C60 6.70373 53.4959 0 44.5826 0ZM15.481 21.9869C11.7042 21.9869 9.45402 19.3542 9.45402 15.8719C9.45402 12.3897 11.7042 9.6813 15.481 9.6813C18.6615 9.6813 21.2616 12.3897 24.0763 16.0402C21.4206 19.4383 18.6138 21.9869 15.481 21.9869ZM44.3122 21.9869C41.1794 21.9869 38.5317 19.3542 35.7169 15.8719C38.6112 12.2215 41.0999 9.6813 44.3122 9.6813C48.0891 9.6813 50.3154 12.4233 50.3154 15.8719C50.3154 19.3205 48.0891 21.9869 44.3122 21.9869Z" fill="#484848"/>
<path d="M36.5917 45L42.5869 37.4299C40.2016 36.6729 37.9991 34.4019 35.7171 31.5841L29.8809 39.1121C31.7915 41.4572 34.06 43.4473 36.5917 45Z" fill="#20A7C9"/>
<path d="M30.1193 24.1571C28.2214 21.7784 25.9672 19.7437 23.4482 18.1346L17.4451 25.7888C19.7271 26.63 21.7467 28.8 23.8935 31.5673L24.1321 31.744L30.1193 24.1571Z" fill="#20A7C9"/>
</svg>
