<svg width="66" height="38" viewBox="0 0 66 38" fill="none" xmlns="http://www.w3.org/2000/svg">
<path d="M3.66093e-05 27.5549C-0.000123448 17.9983 0.000309797 14.8128 3.66093e-05 5.25616C-0.000127306 -0.477887 8.43612 -0.477804 8.43612 5.25616V25.0065C8.43612 26.2807 9.32482 27.5549 10.4211 27.5549H25.8045L23.8196 37.1116H8.43612C4.04251 37.1116 0.000131084 33.1958 3.66093e-05 27.5549Z" fill="white"/>
<path d="M26.3008 25.0065H18.3609L22.8271 5.25616C24.3158 -1.32711 29.2782 -1.71466 32.2556 5.25616L40.6917 25.0065L49.6241 5.25616C52.7936 -1.75208 57.493 -1.75203 59.0526 5.25616L66 36.4744H57.5639L53.0977 14.8128C53.0977 14.8128 51.1127 19.9095 45.1579 33.926C43.2631 38.3857 38.1339 38.1261 36.2255 33.926C32.7519 26.2807 28.2857 14.8128 28.2857 14.8128L26.3008 25.0065Z" fill="white"/>
</svg>
